# AST/ASF file generated using VICON BodyLanguage
# -----------------------------------------------
:version 1.10
:name VICON
:units
  mass 1.0
  length 0.45
  angle deg
:documentation
   .ast/.asf automatically generated from VICON data using
   VICON BodyBuilder and BodyLanguage model FoxedUp or BRILLIANT.MOD
:root
   order TX TY TZ RX RY RZ
   axis XYZ
   position 0 0 0  
   orientation 0 0 0 
:bonedata
  begin
     id 1 
     name lhipjoint
     direction 0.623529 -0.717805 0.309788 
     length 2.23224 
     axis 0 0 0  XYZ
  end
  begin
     id 2 
     name lfemur
     direction 0.34202 -0.939693 0  
     length 7.11402  
     axis 0 0 20  XYZ
    dof rx ry rz
    limits (-160.0 20.0)
           (-70.0 70.0)
           (-60.0 70.0)
  end
  begin
     id 3 
     name ltibia
     direction 0.34202 -0.939693 0   
     length 6.78496   
     axis 0 0 20   XYZ
    dof rx
    limits (-10.0 170.0)
  end
  begin
     id 4 
     name lfoot
     direction 0.125078 -0.343648 0.930732   
     length 1.84054   
     axis -90 7.62852e-016 20   XYZ
    dof rx rz
    limits (-45.0 90.0)
           (-70.0 20.0)
  end
  begin
     id 5 
     name ltoes
     direction 1.53565e-011 -4.21893e-011 1   
     length 0.916474   
     axis -90 7.62852e-016 20   XYZ
    dof rx
    limits (-90.0 20.0)
  end
  begin
     id 6 
     name rhipjoint
     direction -0.564688 -0.757748 0.327026   
     length 2.11457  
     axis 0 0 0  XYZ 
  end
  begin
     id 7 
     name rfemur
     direction -0.34202 -0.939693 0   
     length 7.14609   
     axis 0 0 -20   XYZ
    dof rx ry rz
    limits (-160.0 20.0)
           (-70.0 70.0)
           (-70.0 60.0)
  end
  begin
     id 8 
     name rtibia
     direction -0.34202 -0.939693 0   
     length 6.78101   
     axis 0 0 -20   XYZ
    dof rx
    limits (-10.0 170.0)
 end
 begin
     id 9 
     name rfoot
     direction -0.0992671 -0.272734 0.956955   
     length 1.96168  
     axis -90 -7.62852e-016 -20   XYZ
    dof rx rz
    limits (-45.0 90.0)
           (-20.0 70.0)
  end
  begin
     id 10 
     name rtoes
     direction -1.5356e-011 -4.21891e-011 1   
     length 0.982933   
     axis -90 -7.62852e-016 -20   XYZ
    dof rx
    limits (-90.0 20.0)
  end
  begin
     id 11 
     name lowerback
     direction -0.00596953 0.998668 0.0512524   
     length 1.87557   
     axis 0 0 0   XYZ
    dof rx ry rz
    limits (-20.0 45.0)
           (-30.0 30.0)
           (-30.0 30.0)
  end
  begin
     id 12 
     name upperback
     direction 0.00584879 0.999652 0.0257308   
     length 1.87883   
     axis 0 0 0   XYZ
    dof rx ry rz
    limits (-20.0 45.0)
           (-30.0 30.0)
           (-30.0 30.0)
  end
  begin
     id 13 
     name thorax
     direction 0.010104 0.999947 0.00178881   
     length 1.87779   
     axis 0 0 0   XYZ
    dof rx ry rz
    limits (-20.0 45.0)
           (-30.0 30.0)
           (-30.0 30.0)
  end
  begin
     id 14 
     name lowerneck
     direction 0.0120771 0.995934 -0.0892773   
     length 1.40897   
     axis 0 0 0   XYZ
    dof rx ry rz
    limits (-20.0 45.0)
           (-30.0 30.0)
           (-30.0 30.0)
  end
  begin
     id 15 
     name upperneck
     direction -0.030568 0.999465 -0.0116366   
     length 1.38661   
     axis 0 0 0   XYZ
    dof rx ry rz
    limits (-20.0 45.0)
           (-30.0 30.0)
           (-30.0 30.0)
  end
  begin
     id 16
     name head
     direction -0.0170715 0.999854 -0.00104426  
     length 1.47052  
     axis 0 0 0   XYZ
    dof rx ry rz
    limits (-20.0 45.0)
           (-30.0 30.0)
           (-30.0 30.0)
  end
  begin
     id 17 
     name lclavicle
     direction 0.977763 0.206143 0.038532  
     length 3.02424  
     axis 0 0 0   XYZ
    dof ry rz
    limits (-20.0 10.0)
           (0.0 20.0)
  end
  begin
     id 18 
     name lhumerus
     direction 1 -4.48965e-011 -2.62654e-027   
     length 4.68382   
     axis 180 -30 -90   XYZ
    dof rx ry rz
    limits (-60.0 90.0)
           (-90.0 90.0)
           (-90.0 90.0)
  end
  begin
     id 19
     name lradius
     direction 1 -4.48973e-011 -1.54954e-027   
     length 2.98124   
     axis 180 -30 -90   XYZ
    dof rx
    limits (-10.0 170.0)
  end
  begin
     id 20
     name lwrist
     direction 1 -4.48959e-011 7.20928e-028   
     length 1.49062   
     axis -5.52449e-016 90 90   XYZ
    dof ry
    limits (-180.0 0.0)
 end
  begin
     id 21 
     name lhand
     direction 1 -4.48971e-011 1.44186e-027   
     length 0.707595   
     axis -9.20027e-016 90 90   XYZ
    dof rx rz
    limits (-90.0 90.0)
           (-45.0 45.0)
  end
  begin
     id 22 
     name lfingers
     direction 1 -4.48985e-011 2.88371e-027   
     length 0.570481   
     axis -1.84005e-015 90 90   XYZ
    dof rx
    limits (0.0 90.0)
  end
  begin
     id 23
     name lthumb
     direction 0.707107 -6.34929e-011 0.707107   
     length 0.819101   
     axis -90 45 2.85299e-015   XYZ
    dof rx rz
    limits (-45.0 45.0)
           (-45.0 45.0)
  end
  begin
     id 24 
     name rclavicle
     direction -0.958661 0.284411 -0.00895327   
     length 3.11921  
     axis 0 0 0   XYZ 
    dof ry rz
    limits (-10.0 20.0)
           (-20.0 0.0)
  end
  begin
     id 25 
     name rhumerus
     direction -1 -4.48963e-011 -4.22193e-027  
     length 4.75876   
     axis 180 30 90   XYZ
    dof rx ry rz
    limits (-90.0 60.0)
           (-90.0 90.0)
           (-90.0 90.0)
  end
  begin
     id 26 
     name rradius
     direction -1 -4.48968e-011 -1.07616e-027   
     length 2.93293   
     axis 180 30 90   XYZ
    dof rx
    limits (-10.0 170.0)
  end
  begin
     id 27 
     name rwrist
     direction -1 -4.48965e-011 7.20928e-028   
     length 1.46647   
     axis -5.52449e-016 -90 -90   XYZ
    dof ry
    limits (-180.0 0.0)
  end
  begin
     id 28
     name rhand
     direction -1 -4.48971e-011 1.44186e-027   
     length 0.831748   
     axis -9.20027e-016 -90 -90   XYZ
    dof rx rz
    limits (-90.0 90.0)
           (-45.0 45.0)
  end
  begin
     id 29
     name rfingers
     direction -1 -4.48961e-011 2.88371e-027   
     length 0.670577   
     axis -1.84005e-015 -90 -90   XYZ
    dof rx
    limits (0.0 90.0)
  end
  begin
     id 30
     name rthumb
     direction -0.707107 -6.34929e-011 0.707107   
     length 0.962818   
     axis -90 -45 -2.85299e-015   XYZ
    dof rx rz
    limits (-45.0 45.0)
           (-45.0 45.0)
  end
:hierarchy
  begin
    root lhipjoint rhipjoint lowerback
    lhipjoint lfemur
    lfemur ltibia
    ltibia lfoot
    lfoot ltoes
    rhipjoint rfemur
    rfemur rtibia
    rtibia rfoot
    rfoot rtoes
    lowerback upperback
    upperback thorax
    thorax lowerneck lclavicle rclavicle
    lowerneck upperneck
    upperneck head
    lclavicle lhumerus
    lhumerus lradius
    lradius lwrist
    lwrist lhand lthumb
    lhand lfingers
    rclavicle rhumerus
    rhumerus rradius
    rradius rwrist
    rwrist rhand rthumb
    rhand rfingers
  end

#!OML:ASF E:\id_vita\Project 1\Capture day 1\Session 1\Female.ASF
:FULLY-SPECIFIED
:DEGREES
191
root 0.488655 27.2579 0.321737 37.9907 86.3834 21.9709
lowerback -12.6132 0.0178386 -6.53328
upperback -4.19117 1.04638 -1.04587
thorax 2.5673 0.615734 2.74342
lowerneck 3.36198 0.570138 -3.01362
upperneck 20.7472 0.59075 6.42061
head 5.65799 0.793712 2.59988
rclavicle 3.62782e-015 -3.18055e-015
rhumerus -40.7648 -23.4223 -75.7151
rradius 22.8891
rwrist 23.4374
rhand -17.713 9.19841
rfingers 7.12502
rthumb 8.5473 -20.6086
lclavicle 3.62782e-015 -3.18055e-015
lhumerus -25.3888 15.4902 83.9161
lradius 25.2057
lwrist -27.0577
lhand -9.17433 20.6611
lfingers 7.12502
lthumb 16.7786 49.9562
rfemur -38.1285 12.0566 13.1508
rtibia 16.3344
rfoot -0.139407 -2.64331
rtoes -10.9554
lfemur -20.5725 -5.99029 -25.4618
ltibia 23.5147
lfoot -20.9136 1.46029
ltoes 12.8761
192
root 0.545221 27.259 0.32775 38.6954 86.4764 22.5474
lowerback -12.8755 -0.00710248 -6.66319
upperback -4.09412 1.04914 -0.943794
thorax 2.80645 0.606892 2.92921
lowerneck 3.12164 0.546583 -3.19215
upperneck 20.7148 0.555655 6.42076
head 5.68886 0.76195 2.62989
rclavicle -3.62782e-015 1.11319e-014
rhumerus -40.7907 -23.6331 -75.2043
rradius 22.5168
rwrist 23.6046
rhand -17.7795 9.05999
rfingers 7.12502
rthumb 8.48312 -20.7496
lclavicle -3.62782e-015 1.11319e-014
lhumerus -25.7767 16.1574 83.7179
lradius 24.9909
lwrist -27.4717
lhand -9.11411 20.4851
lfingers 7.12502
lthumb 16.8366 49.7752
rfemur -38.0398 12.3299 13.0213
rtibia 15.4332
rfoot 1.12413 -2.53124
rtoes -10.9606
lfemur -20.3376 -5.99614 -25.4493
ltibia 23.2233
lfoot -21.1028 1.42189
ltoes 13.0606
193
root 0.60723 27.2611 0.334736 40.6351 86.6664 24.4053
lowerback -13.0139 -0.0186573 -6.71059
upperback -4.04871 1.05175 -0.911759
thorax 2.92748 0.60318 2.99273
lowerneck 2.89534 0.461245 -3.50248
upperneck 20.6182 0.398304 6.67941
head 5.70034 0.67667 2.75906
rclavicle -8.44835e-015 1.35174e-014
rhumerus -41.0027 -23.7507 -74.799
rradius 22.6234
rwrist 24.0899
rhand -17.4203 8.19261
rfingers 7.12502
rthumb 8.82973 -21.6027
lclavicle -8.44835e-015 1.35174e-014
lhumerus -26.3174 16.5147 83.5366
lradius 24.8732
lwrist -27.7565
lhand -9.20681 20.3682
lfingers 7.12502
lthumb 16.7474 49.6658
rfemur -37.8891 12.3608 13.0201
rtibia 14.8011
rfoot 2.11307 -2.44663
rtoes -10.6092
lfemur -19.9789 -5.91777 -25.4656
ltibia 22.823
lfoot -21.3436 1.12582
ltoes 13.5282
194
root 0.673149 27.2658 0.341187 44.8958 86.9778 28.6594
lowerback -12.8748 -0.0841116 -6.65549
upperback -4.11208 0.949321 -0.971217
thorax 2.79777 0.55914 2.88133
lowerneck 2.60815 0.378433 -3.61194
upperneck 20.6575 0.24453 6.92671
head 5.76657 0.612647 2.85379
rclavicle 1.63997e-015 2.38542e-015
rhumerus -41.4963 -24.2628 -74.198
rradius 22.2255
rwrist 23.983
rhand -17.7692 8.4642
rfingers 7.12502
rthumb 8.49309 -21.345
lclavicle 1.63997e-015 2.38542e-015
lhumerus -27.0782 16.7395 83.1205
lradius 24.7685
lwrist -27.8701
lhand -9.16074 20.3887
lfingers 7.12502
lthumb 16.7917 49.6826
rfemur -37.6969 12.4678 12.882
rtibia 14.4168
rfoot 3.09864 -2.65133
rtoes -9.51086
lfemur -19.507 -5.85006 -25.5055
ltibia 22.3595
lfoot -21.4107 0.630319
ltoes 13.8105
195
root 0.731727 27.2678 0.345348 50.493 87.197 34.2332
lowerback -12.6098 -0.101518 -6.6296
upperback -4.36942 0.906772 -1.10909
thorax 2.39077 0.56148 2.70978
lowerneck 2.83795 0.228438 -3.20942
upperneck 20.7289 0.0818327 6.65161
head 5.7631 0.549154 2.69146
rclavicle 1.6027e-015 2.0276e-014
rhumerus -42.505 -25.0171 -73.2818
rradius 21.8748
rwrist 24.4708
rhand -17.9685 8.34079
rfingers 7.12502
rthumb 8.30077 -21.4761
lclavicle 1.6027e-015 2.0276e-014
lhumerus -28.1818 16.9142 82.4348
lradius 24.5728
lwrist -27.9608
lhand -9.01369 20.4534
lfingers 7.12502
lthumb 16.9333 49.7352
rfemur -37.6251 12.5991 12.667
rtibia 14.2117
rfoot 4.15486 -2.77673
rtoes -8.85442
lfemur -19.101 -5.87484 -25.5992
ltibia 21.8997
lfoot -21.5027 0.325496
ltoes 14.1348
196
root 0.793268 27.2681 0.350667 52.1648 87.241 35.9762
lowerback -12.739 -0.092679 -6.74924
upperback -4.16214 0.943062 -1.0576
thorax 2.67169 0.562681 2.83994
lowerneck 2.73036 0.209208 -3.20266
upperneck 20.4018 0.0659363 6.52213
head 5.6797 0.52177 2.64188
rclavicle -9.26834e-015 -1.78906e-014
rhumerus -42.608 -25.6253 -72.5879
rradius 21.6659
rwrist 24.9592
rhand -17.6563 8.77921
rfingers 7.12502
rthumb 8.60207 -21.0255
lclavicle -9.26834e-015 -1.78906e-014
lhumerus -28.5785 17.5616 82.0743
lradius 24.2579
lwrist -28.2023
lhand -9.0264 20.4005
lfingers 7.12502
lthumb 16.921 49.6834
rfemur -37.3887 12.6656 12.7212
rtibia 14.052
rfoot 4.93545 -2.5958
rtoes -8.34287
lfemur -18.5964 -6.15513 -25.6156
ltibia 21.547
lfoot -21.6128 0.58584
ltoes 14.1885
197
root 0.861367 27.2679 0.357218 50.0172 87.1298 33.8313
lowerback -12.8879 0.0103128 -6.80168
upperback -4.10491 1.0981 -1.02834
thorax 2.79581 0.633665 2.92566
lowerneck 2.65702 0.19276 -3.23192
upperneck 20.2171 0.0466215 6.47539
head 5.63508 0.501255 2.62779
rclavicle -3.15571e-015 -2.34566e-014
rhumerus -42.9903 -26.0955 -71.8863
rradius 21.6485
rwrist 25.2269
rhand -17.1335 8.57998
rfingers 7.12502
rthumb 9.10652 -21.2034
lclavicle -3.15571e-015 -2.34566e-014
lhumerus -29.2575 18.0875 81.6355
lradius 23.9816
lwrist -28.5609
lhand -9.05202 20.2953
lfingers 7.12502
lthumb 16.8964 49.5803
rfemur -37.1926 12.7187 12.8976
rtibia 13.9859
rfoot 5.53113 -2.25858
rtoes -7.38269
lfemur -18.1231 -6.61124 -25.5691
ltibia 21.2442
lfoot -21.4282 1.22934
ltoes 13.8636
198
root 0.91935 27.2635 0.362531 45.9858 86.9422 29.4784
lowerback -13.2635 0.110967 -6.76736
upperback -4.15136 1.26065 -1.01126
thorax 2.93547 0.713025 2.95504
lowerneck 2.54845 0.172398 -3.1123
upperneck 20.0585 0.042993 6.2617
head 5.6055 0.48874 2.53646
rclavicle 1.08835e-014 -1.27222e-014
rhumerus -43.208 -26.3009 -71.5256
rradius 21.6816
rwrist 25.15
rhand -16.5571 6.96755
rfingers 7.12502
rthumb 9.66269 -22.7908
lclavicle 1.08835e-014 -1.27222e-014
lhumerus -29.9205 18.8563 81.0319
lradius 23.6245
lwrist -29.1031
lhand -9.08511 20.2907
lfingers 7.12502
lthumb 16.8645 49.5784
rfemur -37.4361 12.6305 13.1526
rtibia 13.9685
rfoot 6.22346 -1.68949
rtoes -5.62821
lfemur -18.1075 -7.03785 -25.4396
ltibia 21.0449
lfoot -21.0802 1.95432
ltoes 13.3654
199
root 0.982717 27.2643 0.371324 52.7137 87.3773 36.178
lowerback -12.951 -0.0417193 -6.68142
upperback -4.39727 1.02302 -1.0657
thorax 2.53383 0.618053 2.80604
lowerneck 2.81856 0.160088 -3.03393
upperneck 19.9519 0.022951 6.29819
head 5.52748 0.484132 2.53099
rclavicle -6.00081e-015 -9.14409e-015
rhumerus -44.0642 -26.6335 -70.8349
rradius 21.541
rwrist 25.8159
rhand -16.3984 6.52534
rfingers 7.12502
rthumb 9.81583 -23.2259
lclavicle -6.00081e-015 -9.14409e-015
lhumerus -31.1264 19.3668 80.1062
lradius 23.3131
lwrist -29.556
lhand -9.13087 20.6201
lfingers 7.12502
lthumb 16.8205 49.9116
rfemur -37.1771 12.5285 13.2356
rtibia 14.019
rfoot 6.87988 -1.88631
rtoes -3.41718
lfemur -17.8061 -7.15287 -25.3643
ltibia 20.8937
lfoot -21.1892 1.5977
ltoes 12.916
200
root 1.04551 27.2612 0.381651 55.3716 87.6096 38.7499
lowerback -13.2326 -0.128848 -6.76889
upperback -4.29844 0.940218 -0.948993
thorax 2.79436 0.565955 2.97094
lowerneck 3.18002 0.16752 -3.35123
upperneck 19.2803 -0.020519 6.65001
head 5.25533 0.439394 2.68089
rclavicle -1.16786e-014 2.14687e-014
rhumerus -44.3105 -26.9988 -70.2078
rradius 21.5304
rwrist 26.3138
rhand -16.4164 6.34054
rfingers 7.12502
rthumb 9.79844 -23.4115
lclavicle -1.16786e-014 2.14687e-014
lhumerus -31.7835 20.4126 79.4088
lradius 22.8371
lwrist -30.5395
lhand -8.99473 20.884
lfingers 7.12502
lthumb 16.9515 50.1642
rfemur -36.9772 12.508 13.4455
rtibia 14.146
rfoot 6.97897 -1.701
rtoes -2.23591
lfemur -17.5802 -7.00633 -25.2656
ltibia 20.7591
lfoot -21.4187 1.28779
ltoes 12.7034
201
root 1.11272 27.257 0.393543 57.6385 87.7305 41.0223
lowerback -13.3746 -0.149589 -6.73669
upperback -4.21668 0.923781 -0.980222
thorax 2.96054 0.549526 2.92056
lowerneck 3.03056 0.15719 -3.35574
upperneck 18.9656 -0.0581265 6.75255
head 5.18318 0.416678 2.70745
rclavicle 1.19271e-015 -2.38542e-015
rhumerus -44.621 -27.2516 -69.8108
rradius 21.532
rwrist 26.3397
rhand -16.5175 6.67345
rfingers 7.12502
rthumb 9.70092 -23.0831
lclavicle 1.19271e-015 -2.38542e-015
lhumerus -32.5032 21.6462 78.3162
lradius 22.253
lwrist -31.8079
lhand -8.79793 20.9111
lfingers 7.12502
lthumb 17.1409 50.1751
rfemur -36.693 12.4543 13.6783
rtibia 14.3647
rfoot 6.58508 -1.3988
rtoes -2.82746
lfemur -17.2146 -6.8142 -25.2526
ltibia 20.5578
lfoot -21.7745 0.987533
ltoes 13.2697
